# xmcd
#
# Track frame offsets:
#	150
#	13471
#	31945
#	49496
#	67204
#	88830
#	109045
#	124400
#	143518
#	164519
#	181602
#	200407
#	215762
#	234255
#	249610
#	265990
#	284105
#	299934
#	315134
#	345189
#
# Disc length: 4611 seconds
#
# Revision: 1
# Processed by: cddbd v1.5.2PL0 Copyright (c) Steve Scherf et al.
# Submitted via: audiograbber 1.83.01
#
DISCID=3d120114
DTITLE=Shania Twain - Up!
DYEAR=2003
DGENRE=Pop
TTITLE0=Up!
TTITLE1=I'm Gonna Getcha Good
TTITLE2=She's Not Just A Pretty Face
TTITLE3=Juanita
TTITLE4=Forever And For Always
TTITLE5=Ain't No Particular Way
TTITLE6=It Only Hurts When I'm Breathing
TTITLE7=Nah!
TTITLE8=That Good!
TTITLE9=C'est La Vie
TTITLE10=I'm Jealous
TTITLE11=Ka-Ching
TTITLE12=Thank You Baby!
TTITLE13=Waiter! Bring Me Water!
TTITLE14=What A Way To Wanna Be!
TTITLE15=I Ain't Going Down
TTITLE16=I'm Not In The Mood
TTITLE17=In My Car
TTITLE18=When You Kiss Me
TTITLE19=Daten-CD
EXTD=
EXTT0=
EXTT1=
EXTT2=
EXTT3=
EXTT4=
EXTT5=
EXTT6=
EXTT7=
EXTT8=
EXTT9=
EXTT10=
EXTT11=
EXTT12=
EXTT13=
EXTT14=
EXTT15=
EXTT16=
EXTT17=
EXTT18=
EXTT19=
PLAYORDER=
